<svg width="74" height="68" viewBox="0 0 74 68" fill="none" xmlns="http://www.w3.org/2000/svg">
<path d="M57.2925 49.8337C37.4804 75.1722 4.96903 52.4065 7.54707 33.2561C7.60697 32.8111 7.38745 32.3687 6.98387 32.172L6.64103 32.0048C4.67067 30.9895 3.53609 30.9559 1.74184 32.3254C1.59122 32.4403 1.48028 32.6 1.41898 32.7793L1.07311 33.791C1.02498 33.9318 1.00916 34.0854 1.02694 34.2331C5.0378 67.5528 40.952 77.285 63.5058 53.1271C63.8358 52.7735 64.3758 52.6903 64.7868 52.9453L68.1907 55.0573C68.8569 55.4706 69.7179 54.9915 69.7179 54.2075V40.4065C69.7179 39.7199 69.0418 39.2375 68.3926 39.4609L54.1248 44.3707C53.3547 44.6357 53.2074 45.661 53.8717 46.132L57.0904 48.4143C57.5475 48.7384 57.6377 49.3922 57.2925 49.8337Z" stroke="#2A6AF8"/>
<path d="M16.5024 17.7191C36.3145 -7.61942 68.8259 15.1462 66.2479 34.2967C66.1879 34.7417 66.4075 35.184 66.8111 35.3808L67.1539 35.5479C69.1243 36.5632 70.2588 36.5968 72.0531 35.2274C72.2037 35.1124 72.3146 34.9527 72.3759 34.7734L72.7218 33.7617C72.7699 33.621 72.7858 33.4673 72.768 33.3196C68.7571 -0.000110626 32.8429 -9.73227 10.2891 14.4257C9.95909 14.7792 9.41911 14.8624 9.00815 14.6075L5.60419 12.4955C4.93803 12.0821 4.07697 12.5612 4.07697 13.3452V27.1462C4.07697 27.8329 4.75309 28.3152 5.40236 28.0918L19.6701 23.182C20.4403 22.917 20.5875 21.8918 19.9232 21.4207L16.7045 19.1384C16.2474 18.8143 16.1572 18.1606 16.5024 17.7191Z" stroke="#2A6AF8"/>
<path d="M23.0509 31.002H20.8475C19.9569 31.002 19.5106 29.9255 20.1399 29.2953L36.6926 12.7203C37.087 12.3253 37.7284 12.3297 38.1173 12.73L45.615 20.4464M23.0509 31.002V48.502C23.0509 49.0542 23.4986 49.502 24.0509 49.502H32.2817M23.0509 31.002H51.2561M51.2561 31.002H53.5055C54.3895 31.002 54.8387 29.9391 54.2227 29.3051L51.2561 26.252M51.2561 31.002V48.502C51.2561 49.0542 50.8083 49.502 50.2561 49.502H43.0509M32.2817 49.502V39.3529C32.2817 39.1257 32.3584 38.9042 32.5041 38.7299C33.9798 36.965 35.4567 36.002 37.4099 36.002C39.3856 36.002 41.4711 36.7038 42.8909 38.7599C42.9985 38.9157 43.0509 39.1025 43.0509 39.2918V49.502M32.2817 49.502H43.0509M45.615 20.4464V16.002C45.615 15.4497 46.0628 15.002 46.615 15.002H50.2561C50.8083 15.002 51.2561 15.4497 51.2561 16.002V26.252M45.615 20.4464L51.2561 26.252" stroke="#2A6AF8"/>
</svg>
