<svg width="78" height="76" viewBox="0 0 78 76" fill="none" xmlns="http://www.w3.org/2000/svg">
<path d="M38.9434 0.463867C60.2058 0.463976 77.4229 17.2798 77.4229 38C77.4229 58.7202 60.2058 75.536 38.9434 75.5361C17.6808 75.5361 0.463867 58.7202 0.463867 38C0.463867 17.2798 17.6808 0.463867 38.9434 0.463867Z" stroke="#B58B5D" stroke-width="0.926841"/>
<path d="M39.2441 5.46387C57.3592 5.46387 72.0244 19.7905 72.0244 37.4395C72.0242 55.0883 57.3591 69.415 39.2441 69.415C21.1292 69.415 6.4641 55.0882 6.46387 37.4395C6.46387 19.7905 21.1291 5.46388 39.2441 5.46387Z" stroke="#B58B5D" stroke-width="0.926841"/>
<path d="M32.2949 31.0488L36.5692 35.683" stroke="#B58B5D" stroke-width="0.926841"/>
<path d="M41.8958 35.244C43.9903 36.3287 44.7782 38.8577 43.6743 40.8882C42.5701 42.9188 39.9818 43.7004 37.8869 42.616C35.7919 41.5313 35.0037 39.0012 36.108 36.9705C37.2124 34.9401 39.801 34.1593 41.8958 35.244Z" stroke="#B58B5D" stroke-width="0.926841"/>
</svg>
