<svg width="65" height="63" viewBox="0 0 65 63" fill="none" xmlns="http://www.w3.org/2000/svg">
<path d="M58.5689 32H63.7553V24L56.4943 18.7213M58.5689 32V36.5M58.5689 32L54.2796 29M5.66775 32H1V24L32.1183 1L46.1216 11.1803M5.66775 32V62.5H19.1523M5.66775 32L32.1183 13.5L54.2796 29M46.1216 11.1803V5H56.4943V18.7213M46.1216 11.1803L56.4943 18.7213M19.1523 62.5V51H27.4506M19.1523 62.5H34.7115M58.5689 51V62.5H50.2707M58.5689 51V44M58.5689 51H50.2707M27.4506 51V44H33.6742M27.4506 51H34.7115M58.5689 44V36.5M58.5689 44H50.53M33.6742 44V36.5H41.9724M33.6742 44H42.4911M58.5689 36.5H50.2707M41.9724 36.5V29H54.2796M41.9724 36.5H50.2707M34.7115 62.5V51M34.7115 62.5H50.2707M34.7115 51H42.4911M50.2707 62.5V51M50.2707 51H42.4911M42.4911 51V44M42.4911 44H50.53M50.53 44L50.2707 36.5" stroke="#B58B5D"/>
</svg>
