<svg width="78" height="78" viewBox="0 0 78 78" fill="none" xmlns="http://www.w3.org/2000/svg">
<path d="M26.641 39H2C1.44771 39 1 39.4477 1 40V51M26.641 39H51.7692M26.641 39V51M26.641 77.5H2C1.44772 77.5 1 77.0523 1 76.5V51M26.641 77.5H51.7692M26.641 77.5V58M51.7692 39H75.8974C76.4497 39 76.8974 39.4477 76.8974 40V76.5C76.8974 77.0523 76.4497 77.5 75.8974 77.5H51.7692M51.7692 39V58.25M51.7692 77.5V58.25M1 51H26.641M26.641 51V58M26.641 58C28.6923 58 44.2479 58.1667 51.7692 58.25M76.8974 2V5.5C76.8974 6.05228 76.4497 6.5 75.8974 6.5H2C1.44772 6.5 1 6.05228 1 5.5V2C1 1.44772 1.44771 1 2 1H75.8974C76.4497 1 76.8974 1.44772 76.8974 2Z" stroke="#2A6AF8"/>
<path d="M71.2568 39V27.5" stroke="#2A6AF8"/>
<path d="M71.2568 27.5C71.032 26.1537 70.2312 25.5 68.6927 25.5C67.2002 25.5 66.5964 25.95 66.1677 27.3665C66.141 27.4548 66.1286 27.5468 66.1286 27.639V30.5M35.3594 42.5H43.0517" stroke="#2A6AF8"/>
<path d="M54.8467 54V61.5" stroke="#2A6AF8"/>
<path d="M34.8467 61.5H43.0518" stroke="#2A6AF8"/>
<path d="M8.6924 51C8.68741 52.6932 9.71802 54.5 10.7437 54.5C11.7693 54.5 16.3847 54.9465 17.4103 54.5C18.436 54.0535 19.3207 53.3556 19.4616 51" stroke="#2A6AF8"/>
<path d="M13.8203 44.5C14.4058 44.5 14.8594 44.9596 14.8594 45.5C14.8594 46.0404 14.4058 46.5 13.8203 46.5C13.235 46.4998 12.7822 46.0403 12.7822 45.5C12.7822 44.9597 13.235 44.5002 13.8203 44.5Z" stroke="#2A6AF8"/>
<path d="M21 44.5C21.5855 44.5 22.0391 44.9596 22.0391 45.5C22.0391 46.0404 21.5855 46.5 21 46.5C20.4146 46.4998 19.9619 46.0403 19.9619 45.5C19.9619 44.9597 20.4146 44.5002 21 44.5Z" stroke="#2A6AF8"/>
<path d="M6.64062 44.5C7.22616 44.5 7.67969 44.9596 7.67969 45.5C7.67969 46.0404 7.22616 46.5 6.64062 46.5C6.05527 46.4998 5.60254 46.0403 5.60254 45.5C5.60254 44.9597 6.05527 44.5002 6.64062 44.5Z" stroke="#2A6AF8"/>
<path d="M9.71792 39C8.05652 38.2179 7.53229 37.62 7.17841 36.1077C7.16175 36.0366 7.15382 35.9631 7.15382 35.89V32M18.4359 39C19.4632 38.3641 19.7945 37.6805 19.9743 36V32M5.10254 32H7.15382M7.15382 32V31C7.15382 30.4477 7.60154 30 8.15382 30H18.9743C19.5266 30 19.9743 30.4477 19.9743 31V32M22.5384 32H19.9743" stroke="#2A6AF8"/>
</svg>
