<svg width="67" height="65" viewBox="0 0 67 65" fill="none" xmlns="http://www.w3.org/2000/svg">
<path d="M6.70502 61.5H1V64.5H66.3485V61.5H61.1621M6.70502 61.5V23L22.7828 16.5M6.70502 61.5H11.3728M22.7828 16.5V61.5M22.7828 16.5L30.0438 19.5M22.7828 61.5H30.0438M22.7828 61.5H17.0778M30.0438 19.5V61.5M30.0438 19.5V7L45.6029 1M30.0438 61.5H45.6029M45.6029 1V61.5M45.6029 1L61.1621 7V61.5M45.6029 61.5H61.1621M11.3728 61.5V50.5H9.81686L17.0778 50.1111M11.3728 61.5H17.0778M19.1523 50L17.0778 50.1111M17.0778 50.1111V61.5M14.4846 43.5V38.5L17.0778 38V43L14.4846 43.5ZM9.81686 37V32.5L12.41 31.5V36L9.81686 37ZM9.29822 25.5L12.41 24.5V29.5L9.29822 30.5V25.5ZM14.4846 24L17.0778 23V27.5L14.4846 28.5V24ZM14.4846 31L17.0778 30V35L14.4846 35.5V31ZM9.81686 39.5L12.41 38.5V43.5L9.81686 44V39.5Z" stroke="#2A6AF8"/>
<path d="M49.2334 57.5V8" stroke="#2A6AF8"/>
<path d="M53.3828 57.5V9.5" stroke="#2A6AF8"/>
<path d="M57.0137 57.5V11.5" stroke="#2A6AF8"/>
<path d="M34.7121 61.5V48H33.6748L40.9357 47.5882M42.4917 47.5L40.9357 47.5882M40.9357 47.5882V61.5" stroke="#2A6AF8"/>
<path d="M42.4917 35.5L39.3799 36V41.5H42.4917V35.5Z" stroke="#2A6AF8"/>
<path d="M42.4917 32L39.3799 32.5V26.5L42.4917 26V32Z" stroke="#2A6AF8"/>
<path d="M42.4917 22.5L39.3799 23.5V17.5L42.4917 16.5V22.5Z" stroke="#2A6AF8"/>
<path d="M42.4917 13L39.3799 14.5V9L42.4917 7.5V13Z" stroke="#2A6AF8"/>
<path d="M36.2681 33L33.1562 33.5V28L36.2681 27.5V33Z" stroke="#2A6AF8"/>
<path d="M36.2681 24L33.1562 25V19.5L36.2681 18.5V24Z" stroke="#2A6AF8"/>
<path d="M36.2681 15.5L33.1562 16.5V11L36.2681 10V15.5Z" stroke="#2A6AF8"/>
<path d="M36.2681 36L33.1562 37V42.5L36.2681 42V36Z" stroke="#2A6AF8"/>
</svg>
