<svg width="71" height="80" viewBox="0 0 71 80" fill="none" xmlns="http://www.w3.org/2000/svg">
<path d="M25.2306 33.23L35.6922 39.3839M25.2306 33.23L24.6152 45.5377L35.6922 51.6916M25.2306 33.23L35.6922 27.0762L46.1537 33.23M35.6922 39.3839L46.1537 33.23M35.6922 39.3839V51.6916M46.1537 33.23V46.1531L35.6922 51.6916" stroke="#B58B5D" stroke-width="1.23077"/>
<rect x="14.1544" y="0.615385" width="43.0769" height="78.7692" rx="6.76923" stroke="#B58B5D" stroke-width="1.23077"/>
<path d="M35.0771 24C44.6959 24 53.3744 25.7797 59.625 28.6309C65.9302 31.507 69.5381 35.3551 69.5381 39.3848C69.5381 43.4144 65.9302 47.2625 59.625 50.1387C53.3744 52.9898 44.6959 54.7695 35.0771 54.7695C25.4584 54.7695 16.7799 52.9898 10.5293 50.1387C4.22391 47.2625 0.615234 43.4145 0.615234 39.3848C0.615234 35.3551 4.22391 31.507 10.5293 28.6309C16.7799 25.7797 25.4584 24 35.0771 24Z" stroke="#B58B5D" stroke-width="1.23077"/>
<path d="M31.3848 72.6152H40.6155" stroke="#B58B5D" stroke-width="1.23077"/>
<line x1="62.7695" y1="43.6932" x2="67.6926" y2="43.6932" stroke="#B58B5D" stroke-width="1.23077"/>
<line x1="68.3084" y1="49.2305" x2="68.3084" y2="43.0766" stroke="#B58B5D" stroke-width="1.23077"/>
</svg>
