<svg width="78" height="78" viewBox="0 0 78 78" fill="none" xmlns="http://www.w3.org/2000/svg">
<path d="M26.641 39H2C1.44771 39 1 39.4477 1 40V51M26.641 39H51.7692M26.641 39V51M26.641 77.5H2C1.44772 77.5 1 77.0523 1 76.5V51M26.641 77.5H51.7692M26.641 77.5V58M51.7692 39H75.8974C76.4497 39 76.8974 39.4477 76.8974 40V76.5C76.8974 77.0523 76.4497 77.5 75.8974 77.5H51.7692M51.7692 39V58.25M51.7692 77.5V58.25M1 51H26.641M26.641 51V58M26.641 58C28.6923 58 44.2479 58.1667 51.7692 58.25M76.8974 2V5.5C76.8974 6.05228 76.4497 6.5 75.8974 6.5H2C1.44772 6.5 1 6.05228 1 5.5V2C1 1.44772 1.44771 1 2 1H75.8974C76.4497 1 76.8974 1.44772 76.8974 2Z" stroke="#B58B5D"/>
<path d="M71.2559 39V27.5" stroke="#B58B5D"/>
<path d="M71.2568 27.5C71.032 26.1537 70.2312 25.5 68.6927 25.5C67.2002 25.5 66.5964 25.95 66.1677 27.3665C66.141 27.4548 66.1286 27.5468 66.1286 27.639V30.5M35.3594 42.5H43.0517" stroke="#B58B5D"/>
<path d="M54.8457 54V61.5" stroke="#B58B5D"/>
<path d="M34.8457 61.5H43.0508" stroke="#B58B5D"/>
<path d="M8.69338 51C8.68839 52.6932 9.719 54.5 10.7447 54.5C11.7703 54.5 16.3857 54.9465 17.4113 54.5C18.437 54.0535 19.3217 53.3556 19.4626 51" stroke="#B58B5D"/>
<path d="M13.8213 44.5C14.4068 44.5 14.8604 44.9596 14.8604 45.5C14.8604 46.0404 14.4068 46.5 13.8213 46.5C13.2359 46.4998 12.7832 46.0403 12.7832 45.5C12.7832 44.9597 13.2359 44.5002 13.8213 44.5Z" stroke="#B58B5D"/>
<path d="M20.999 44.5C21.5846 44.5 22.0381 44.9596 22.0381 45.5C22.0381 46.0404 21.5846 46.5 20.999 46.5C20.4137 46.4998 19.9609 46.0403 19.9609 45.5C19.9609 44.9597 20.4137 44.5002 20.999 44.5Z" stroke="#B58B5D"/>
<path d="M6.6416 44.5C7.22714 44.5 7.68066 44.9596 7.68066 45.5C7.68066 46.0404 7.22714 46.5 6.6416 46.5C6.05625 46.4998 5.60352 46.0403 5.60352 45.5C5.60352 44.9597 6.05625 44.5002 6.6416 44.5Z" stroke="#B58B5D"/>
<path d="M9.7189 39C8.0575 38.2179 7.53327 37.62 7.17939 36.1077C7.16273 36.0366 7.1548 35.9631 7.1548 35.89V32M18.4368 39C19.4642 38.3641 19.7955 37.6805 19.9753 36V32M5.10352 32H7.1548M7.1548 32V31C7.1548 30.4477 7.60251 30 8.1548 30H18.9753C19.5276 30 19.9753 30.4477 19.9753 31V32M22.5394 32H19.9753" stroke="#B58B5D"/>
</svg>
