<svg width="46" height="67" viewBox="0 0 46 67" fill="none" xmlns="http://www.w3.org/2000/svg">
<path d="M1 29.5C1.41265 26.1799 2.51224 25.0569 5.61538 24" stroke="#B58B5D"/>
<path d="M9.20508 11.5301C11.7692 -3.97078 36.3846 -0.969303 36.3846 11.5301" stroke="#B58B5D"/>
<path d="M35.3582 66.0293L32.2812 61.0293V34.5293" stroke="#B58B5D"/>
<path d="M35.3587 66.0293L38.6746 60.7758C39.1424 60.0346 39.0731 59.0751 38.5036 58.4088L38.0078 57.8287C37.3683 57.0805 37.3683 55.9781 38.0078 55.2299L38.3507 54.8287C38.9902 54.0805 38.9902 52.9781 38.3507 52.2299L37.9261 51.7332C37.3232 51.0278 37.2847 50.0003 37.8331 49.2518L38.5254 48.3068C39.0738 47.5583 39.0353 46.5308 38.4324 45.8254L38.1142 45.4531C37.4295 44.6521 37.4838 43.4573 38.2383 42.7217L38.8575 42.118C39.2436 41.7416 39.4613 41.2252 39.4613 40.686V35.0293M36.3844 24.0293V11.5293M9.20513 11.5293V28.5294M9.20513 32.0293V28.5294M9.20513 28.5294C11.2564 28.5294 12.7949 30.0292 12.7949 32.0293C12.7949 34.0294 10.7436 35.0292 9.20513 35.0293C7.66667 35.0294 5.61539 34.0292 5.61538 32.0293C5.61538 30.0294 7.15385 28.5294 9.20513 28.5294ZM1 29.5294V58.0294M12.7949 24.0293C16.1715 25.5696 17.1212 26.6749 17.4103 29.5294V58.0294M1 58.0294V59.5293C1.45604 63.3424 2.63771 64.5632 5.35365 65.9021C5.52669 65.9874 5.71229 66.045 5.90294 66.0745C8.60989 66.4932 10.172 66.5338 12.5784 66.0717C12.7222 66.0441 12.864 65.999 12.9974 65.9385C16.3924 64.3976 17.3696 62.9649 17.4103 59.5293V58.0294M1 58.0294C7.7426 60.8488 11.3737 61.054 17.4103 58.0294M12.7949 42.0294V53.0294C12.7949 54.134 11.8994 55.0294 10.7949 55.0294H7.61538C6.51082 55.0294 5.61538 54.134 5.61538 53.0294V42.0294C5.61538 40.9248 6.51082 40.0294 7.61538 40.0294H10.7949C11.8994 40.0294 12.7949 40.9248 12.7949 42.0294Z" stroke="#B58B5D"/>
<path d="M36.3838 20.0293C40.9344 20.0293 44.6016 23.6229 44.6016 28.0293C44.6016 32.4357 40.9344 36.0293 36.3838 36.0293C31.8332 36.0292 28.166 32.4357 28.166 28.0293C28.166 23.6229 31.8332 20.0294 36.3838 20.0293Z" stroke="#B58B5D"/>
<path d="M36.3848 24.0293C38.6696 24.0293 40.5 25.832 40.5 28.0293C40.5 30.2266 38.6696 32.0293 36.3848 32.0293C34.1 32.0292 32.2695 30.2265 32.2695 28.0293C32.2695 25.8321 34.1 24.0294 36.3848 24.0293Z" stroke="#B58B5D"/>
</svg>
