<svg width="62" height="63" viewBox="0 0 62 63" fill="none" xmlns="http://www.w3.org/2000/svg">
<path d="M56.5 32H61.5V24L54.5 18.7213M56.5 32V36.5M56.5 32L52.3649 29M5.5 32H1V24L31 1L44.5 11.1803M5.5 32V62.5H18.5M5.5 32L31 13.5L52.3649 29M44.5 11.1803V5H54.5V18.7213M44.5 11.1803L54.5 18.7213M18.5 62.5V51H26.5M18.5 62.5H33.5M56.5 51V62.5H48.5M56.5 51V44M56.5 51H48.5M26.5 51V44H32.5M26.5 51H33.5M56.5 44V36.5M56.5 44H48.75M32.5 44V36.5H40.5M32.5 44H41M56.5 36.5H48.5M40.5 36.5V29H52.3649M40.5 36.5H48.5M33.5 62.5V51M33.5 62.5H48.5M33.5 51H41M48.5 62.5V51M48.5 51H41M41 51V44M41 44H48.75M48.75 44L48.5 36.5" stroke="#464646"/>
</svg>
