<svg width="64" height="65" viewBox="0 0 64 65" fill="none" xmlns="http://www.w3.org/2000/svg">
<path d="M6 61.5H0.5V64.5H63.5V61.5H58.5M6 61.5V23L21.5 16.5M6 61.5H10.5M21.5 16.5V61.5M21.5 16.5L28.5 19.5M21.5 61.5H28.5M21.5 61.5H16M28.5 19.5V61.5M28.5 19.5V7L43.5 1M28.5 61.5H43.5M43.5 1V61.5M43.5 1L58.5 7V61.5M43.5 61.5H58.5M10.5 61.5V50.5H9L16 50.1111M10.5 61.5H16M18 50L16 50.1111M16 50.1111V61.5M13.5 43.5V38.5L16 38V43L13.5 43.5ZM9 37V32.5L11.5 31.5V36L9 37ZM8.5 25.5L11.5 24.5V29.5L8.5 30.5V25.5ZM13.5 24L16 23V27.5L13.5 28.5V24ZM13.5 31L16 30V35L13.5 35.5V31ZM9 39.5L11.5 38.5V43.5L9 44V39.5Z" stroke="#464646"/>
<path d="M47 57.5V8" stroke="#464646"/>
<path d="M51 57.5V9.5" stroke="#464646"/>
<path d="M54.5 57.5V11.5" stroke="#464646"/>
<path d="M33 61.5V48H32L39 47.5882M40.5 47.5L39 47.5882M39 47.5882V61.5" stroke="#464646"/>
<path d="M40.5 35.5L37.5 36V41.5H40.5V35.5Z" stroke="#464646"/>
<path d="M40.5 32L37.5 32.5V26.5L40.5 26V32Z" stroke="#464646"/>
<path d="M40.5 22.5L37.5 23.5V17.5L40.5 16.5V22.5Z" stroke="#464646"/>
<path d="M40.5 13L37.5 14.5V9L40.5 7.5V13Z" stroke="#464646"/>
<path d="M34.5 33L31.5 33.5V28L34.5 27.5V33Z" stroke="#464646"/>
<path d="M34.5 24L31.5 25V19.5L34.5 18.5V24Z" stroke="#464646"/>
<path d="M34.5 15.5L31.5 16.5V11L34.5 10V15.5Z" stroke="#464646"/>
<path d="M34.5 36L31.5 37V42.5L34.5 42V36Z" stroke="#464646"/>
</svg>
