<svg width="72" height="68" viewBox="0 0 72 68" fill="none" xmlns="http://www.w3.org/2000/svg">
<path d="M55.894 49.8221C36.5743 75.1839 4.85728 52.4007 7.38484 33.2451C7.44287 32.8053 7.22753 32.3686 6.83076 32.1702L6.5 32.0048C4.57946 30.9898 3.47333 30.956 1.72482 32.3242C1.57686 32.4399 1.46849 32.5994 1.40908 32.7776L1.06972 33.7957C1.02379 33.9335 1.00871 34.0834 1.02562 34.2277C4.9318 67.5413 39.93 77.2802 61.9224 53.1498C62.2543 52.7856 62.8064 52.6999 63.2221 52.9644L66.4631 55.0268C67.1288 55.4505 68 54.9723 68 54.1832V40.4182C68 39.7283 67.3178 39.2456 66.6672 39.4752L52.7936 44.3718C52.0341 44.6399 51.8869 45.6498 52.5383 46.1235L55.6941 48.4186C56.1397 48.7427 56.2279 49.3838 55.894 49.8221Z" stroke="#464646"/>
<path d="M16.106 17.7306C35.4257 -7.63118 67.1427 15.152 64.6152 34.3077C64.5571 34.7475 64.7725 35.1841 65.1692 35.3825L65.5 35.5479C67.4205 36.5629 68.5267 36.5968 70.2752 35.2286C70.4231 35.1128 70.5315 34.9534 70.5909 34.7751L70.9303 33.7571C70.9762 33.6193 70.9913 33.4693 70.9744 33.3251C67.0682 0.0114059 32.07 -9.72748 10.0776 14.403C9.74567 14.7671 9.19355 14.8529 8.77787 14.5884L5.53688 12.5259C4.87115 12.1023 4 12.5805 4 13.3696V27.1345C4 27.8244 4.6822 28.3071 5.33282 28.0775L19.2064 23.1809C19.9659 22.9129 20.1131 21.9029 19.4617 21.4292L16.3059 19.1341C15.8603 18.81 15.7721 18.1689 16.106 17.7306Z" stroke="#464646"/>
<path d="M22.5 31.002H20.3694C19.4849 31.002 19.0359 29.938 19.6529 29.3043L35.7736 12.7479C36.17 12.3409 36.8254 12.3454 37.2161 12.7578L44.5 20.4464M22.5 31.002V48.502C22.5 49.0542 22.9477 49.502 23.5 49.502H31.5M22.5 31.002H50M50 31.002H52.1751C53.0531 31.002 53.5049 29.9515 52.9011 29.3142L50 26.252M50 31.002V48.502C50 49.0542 49.5523 49.502 49 49.502H42M31.5 49.502V39.3459C31.5 39.123 31.5739 38.9054 31.7147 38.7326C33.1542 36.9659 34.5947 36.002 36.5 36.002C38.4273 36.002 40.4618 36.7045 41.8462 38.7632C41.9497 38.9171 42 39.1002 42 39.2857V49.502M31.5 49.502H42M44.5 20.4464V16.002C44.5 15.4497 44.9477 15.002 45.5 15.002H49C49.5523 15.002 50 15.4497 50 16.002V26.252M44.5 20.4464L50 26.252" stroke="#464646"/>
</svg>
