<svg width="44" height="67" viewBox="0 0 44 67" fill="none" xmlns="http://www.w3.org/2000/svg">
<path d="M9 11.5301C11.5 -3.97078 35.5 -0.969303 35.5 11.5301" stroke="#464646"/>
<path d="M34.5 66.0293L31.5 61.0293V34.5293" stroke="#464646"/>
<path d="M34.4998 66.0293L37.7464 60.7535C38.1965 60.0221 38.1294 59.0848 37.5795 58.425L37.0667 57.8097C36.4487 57.068 36.4487 55.9906 37.0667 55.2489L37.4328 54.8097C38.0509 54.068 38.0509 52.9906 37.4328 52.2489L36.9883 51.7156C36.406 51.0168 36.3686 50.013 36.8973 49.2727L37.6022 48.2859C38.131 47.5456 38.0936 46.5418 37.5112 45.843L37.169 45.4324C36.5068 44.6377 36.5598 43.4693 37.2912 42.7378L37.914 42.1151C38.2891 41.74 38.4998 41.2313 38.4998 40.7009V35.0293M35.4998 24.0293V11.5293M9 11.5293V28.5294M9 32.0293V28.5294M9 28.5294C11 28.5294 12.5 30.0292 12.5 32.0293C12.5 34.0294 10.5 35.0292 9 35.0293C7.5 35.0294 5.5 34.0292 5.5 32.0293C5.5 30.0294 7 28.5294 9 28.5294ZM1 29.5294V58.0294M12.5 24.0293C15.7923 25.5696 16.7182 26.6749 17 29.5294V58.0294M1 58.0294V59.5293C1.44404 63.3372 2.59368 64.56 5.23414 65.8967C5.40983 65.9856 5.59906 66.0458 5.79355 66.0766C8.42112 66.4928 9.94247 66.5329 12.2793 66.0736C12.426 66.0448 12.5702 65.9978 12.7057 65.9347C16.0092 64.3952 16.9604 62.9621 17 59.5293V58.0294M1 58.0294C7.57404 60.8488 11.1143 61.054 17 58.0294M12.5 42.0294V53.0294C12.5 54.134 11.6046 55.0294 10.5 55.0294H7.5C6.39543 55.0294 5.5 54.134 5.5 53.0294V42.0294C5.5 40.9248 6.39543 40.0294 7.5 40.0294H10.5C11.6046 40.0294 12.5 40.9248 12.5 42.0294Z" stroke="#464646"/>
<circle cx="35.5" cy="28.0293" r="8" stroke="#464646"/>
<circle cx="35.5" cy="28.0293" r="4" stroke="#464646"/>
</svg>
