<svg width="76" height="78" viewBox="0 0 76 78" fill="none" xmlns="http://www.w3.org/2000/svg">
<path d="M26 39H2C1.44772 39 1 39.4477 1 40V51M26 39H50.5M26 39V51M26 77.5H2C1.44772 77.5 1 77.0523 1 76.5V51M26 77.5H50.5M26 77.5V58M50.5 39H74C74.5523 39 75 39.4477 75 40V76.5C75 77.0523 74.5523 77.5 74 77.5H50.5M50.5 39V58.25M50.5 77.5V58.25M1 51H26M26 51V58M26 58C28 58 43.1667 58.1667 50.5 58.25M75 2V5.5C75 6.05228 74.5523 6.5 74 6.5H2C1.44772 6.5 1 6.05228 1 5.5V2C1 1.44772 1.44771 1 2 1H74C74.5523 1 75 1.44772 75 2Z" stroke="#464646"/>
<path d="M69.5 39V27.5" stroke="#464646"/>
<path d="M69.5 27.5C69.2808 26.1537 68.5 25.5 67 25.5C65.5438 25.5 64.9553 25.9506 64.5373 27.3694C64.5118 27.4557 64.5 27.5456 64.5 27.6357V30.5M34.5 42.5H42" stroke="#464646"/>
<path d="M53.5 54V61.5" stroke="#464646"/>
<path d="M34 61.5H42" stroke="#464646"/>
<path d="M8.50002 51C8.49515 52.6932 9.5 54.5 10.5 54.5C11.5 54.5 16 54.9465 17 54.5C18 54.0535 18.8626 53.3556 19 51" stroke="#464646"/>
<circle cx="13.5" cy="45.5" r="1.5" fill="#464646"/>
<circle cx="20.5" cy="45.5" r="1.5" fill="#464646"/>
<circle cx="6.5" cy="45.5" r="1.5" fill="#464646"/>
<path d="M9.5 39C7.87925 38.2175 7.36845 37.6194 7.02341 36.1053C7.00756 36.0357 7 35.964 7 35.8927V32M18 39C19.0016 38.3641 19.3247 37.6805 19.5 36V32M5 32H7M7 32V31C7 30.4477 7.44772 30 8 30H18.5C19.0523 30 19.5 30.4477 19.5 31V32M22 32H19.5" stroke="#464646"/>
</svg>
